# xmcd
#
# Track frame offsets: 
#        150
#        22307
#        40053
#        52758
#        65306
#        82540
#        101056
#        119890
#        138842
#        159274
#        178238
#        193606
#        211110
#
# Disc length: 3027 seconds
#
# Revision: 0
# Processed by: cddbd v1.5.2PL0 Copyright (c) Steve Scherf et al.
# Submitted via: ExactAudioCopy v1.0b4
#
DISCID=a90bd10d
DTITLE=Curtis Salgado and Alan Hager - Rough Cut
DYEAR=2018
DGENRE=Blues
TTITLE0=I Will Not Surrender
TTITLE1=So Near To Nowhere
TTITLE2=One Night Only
TTITLE3=I Want My Dog To Live Longer (The Greatest Wish)
TTITLE4=I Can't Be Satisfed
TTITLE5=Too Young To Die
TTITLE6=Depot Blues
TTITLE7=Morning Train
TTITLE8=You Got To Move
TTITLE9=Hell In A Handbasket
TTITLE10=Long Train Blues
TTITLE11=The Gift Of Robert Charles
TTITLE12=I Want You By My Side
EXTD=
EXTT0=
EXTT1=
EXTT2=
EXTT3=
EXTT4=
EXTT5=
EXTT6=
EXTT7=
EXTT8=
EXTT9=
EXTT10=
EXTT11=
EXTT12=
PLAYORDER=
